<svg width="500" height="349" viewBox="0 0 500 349" fill="none" xmlns="http://www.w3.org/2000/svg">
<path d="M155.218 0.332803C161.204 -0.0215357 165.245 4.04847 172.319 10.4777L327.681 10.7676C332.686 6.02749 335.664 3.70469 341.739 1.05744C345.645 0.329825 347.98 0.207935 352.319 0.332803C409.253 6.78224 418.771 28.5321 424.927 41.0574C431.112 46.364 433.7 50.6326 437.391 59.6081C472.878 146.986 500.145 238.883 500 278.014C499.855 317.144 481.841 336.424 453.623 347.579C451.573 347.511 450.44 347.445 448.695 346.854C417.987 326.519 393.095 287.503 375.652 267.144C358.209 246.785 340.5 249.643 323.623 248.448H184.783C161.374 248.365 148.328 248.798 130.725 262.651C118.838 275.396 108.83 288.455 103.338 296.564C97.845 304.674 67.6075 339.72 51.3047 347.289H48.2612C10.1509 333.444 1.78942 311.827 1.7395 279.463C2.12174 256.675 3.22111 243.974 8.84093 221.637C24.9762 163.383 36.9156 126.441 49.3962 96.1298C58.3954 70.7796 68.4635 49.8946 76.3771 40.1878C90.7888 12.1517 107.629 6.8501 146.087 0.767582L155.218 0.332803Z" fill="url(#paint0_linear_64381_775)"/>
<path d="M352.319 0.332803C409.253 6.78224 418.771 28.5321 424.928 41.0574L327.681 10.7676C332.686 6.02749 335.664 3.70469 341.739 1.05744C345.645 0.329825 347.98 0.207935 352.319 0.332803Z" fill="url(#paint1_linear_64381_775)"/>
<path d="M148.262 0.0428716C91.3271 6.50847 81.8096 28.3128 75.6529 40.8695L172.899 10.5038C167.894 5.75183 164.917 3.42321 158.841 0.769324C154.936 0.0398854 152.6 -0.0823101 148.262 0.0428716Z" fill="url(#paint2_linear_64381_775)"/>
<g filter="url(#filter0_i_64381_775)">
<path d="M0.00062561 278.218C0.145554 317.348 18.1592 336.628 46.3773 347.783C52.8462 338.803 56.5054 333.777 63.3337 324.884C89.7981 296.511 105.093 281.057 132.899 254.015C147.272 245.063 156.327 242.538 174.348 242.71C203.565 242.458 227.25 242.169 250 242.144V10.8267L172.319 10.9716C134.748 13.6213 113.803 12.4047 75.0728 41.2614C68.8882 46.568 66.2998 50.8367 62.6091 59.8121C27.1224 147.19 -0.144318 239.087 0.00062561 278.218Z" fill="url(#paint3_linear_64381_775)"/>
</g>
<g filter="url(#filter1_i_64381_775)">
<path d="M499.999 278.116C499.855 317.246 481.841 336.526 453.623 347.681C447.154 338.701 443.495 333.675 436.666 324.782C410.202 296.409 394.907 280.955 367.101 253.913C352.728 244.961 343.673 242.436 325.652 242.608C296.435 242.356 272.749 242.067 250 242.042V10.7246L327.681 10.8695C365.252 13.5193 386.196 12.3026 424.927 41.1594C431.112 46.466 433.7 50.7346 437.391 59.7101C472.878 147.088 500.144 238.985 499.999 278.116Z" fill="url(#paint4_linear_64381_775)"/>
</g>
<path d="M434.493 327.578C441.321 336.47 443.676 338.309 450.145 347.288C451.235 347.474 453.478 347.433 453.478 347.433L436.667 324.68C412.853 298.94 396.938 283.028 367.102 253.81C352.364 245.532 343.71 241.935 325.652 242.506C260.04 241.81 223.287 241.294 156.812 243.81C143.101 247.476 136.496 250.896 127.247 260.187C106.864 279.793 95.9384 289.545 72.0296 317.868C60.9603 329.16 56.3314 335.665 48.2615 347.288H51.3049C59.957 334.202 64.2496 329.676 74.3484 319.172C94.7578 295.729 106.178 282.664 128.551 261.926C137.814 252.344 142.917 249.583 156.957 246.129C221.012 243.476 258.762 244.102 325.652 244.68C343.673 244.507 350.99 246.743 365.363 255.694C393.169 282.736 408.029 299.205 434.493 327.578Z" fill="url(#paint5_linear_64381_775)"/>
<path d="M434.493 327.578C441.321 336.47 443.676 338.309 450.145 347.288C451.235 347.474 453.478 347.433 453.478 347.433C447.026 338.507 443.36 333.521 436.667 324.68C412.853 298.94 396.938 283.028 367.102 253.81C352.364 245.532 343.71 241.935 325.652 242.506C260.04 241.81 223.287 241.294 156.812 243.81C143.101 247.476 136.496 250.896 127.247 260.187C106.864 279.793 95.9384 289.545 72.0296 317.868C60.9603 329.16 56.3314 335.665 48.2615 347.288H51.3049C59.957 334.202 64.2496 329.676 74.3484 319.172C94.7578 295.729 106.178 282.664 128.551 261.926C137.814 252.344 142.917 249.583 156.957 246.129C221.012 243.476 258.762 244.102 325.652 244.68C343.673 244.507 350.99 246.743 365.363 255.694C393.169 282.736 408.029 299.205 434.493 327.578Z" fill="#C4C7CE"/>
<path d="M450.145 347.288C443.676 338.309 441.321 336.471 434.493 327.578C408.029 299.205 393.169 282.736 365.363 255.694C350.99 246.743 343.673 244.507 325.652 244.68C258.762 244.102 221.012 243.476 156.957 246.129C142.917 249.584 137.814 252.344 128.551 261.926C106.178 282.664 94.7577 295.729 74.3484 319.173C64.2496 329.677 59.9569 334.202 51.3049 347.288" stroke="#9B9EA5" stroke-width="3"/>
<defs>
<filter id="filter0_i_64381_775" x="0" y="10.8267" width="280" height="336.956" filterUnits="userSpaceOnUse" color-interpolation-filters="sRGB">
<feFlood flood-opacity="0" result="BackgroundImageFix"/>
<feBlend mode="normal" in="SourceGraphic" in2="BackgroundImageFix" result="shape"/>
<feColorMatrix in="SourceAlpha" type="matrix" values="0 0 0 0 0 0 0 0 0 0 0 0 0 0 0 0 0 0 127 0" result="hardAlpha"/>
<feOffset dx="30"/>
<feGaussianBlur stdDeviation="15"/>
<feComposite in2="hardAlpha" operator="arithmetic" k2="-1" k3="1"/>
<feColorMatrix type="matrix" values="0 0 0 0 0 0 0 0 0 0 0 0 0 0 0 0 0 0 0.15 0"/>
<feBlend mode="normal" in2="shape" result="effect1_innerShadow_64381_775"/>
</filter>
<filter id="filter1_i_64381_775" x="220" y="10.7246" width="280" height="336.956" filterUnits="userSpaceOnUse" color-interpolation-filters="sRGB">
<feFlood flood-opacity="0" result="BackgroundImageFix"/>
<feBlend mode="normal" in="SourceGraphic" in2="BackgroundImageFix" result="shape"/>
<feColorMatrix in="SourceAlpha" type="matrix" values="0 0 0 0 0 0 0 0 0 0 0 0 0 0 0 0 0 0 127 0" result="hardAlpha"/>
<feOffset dx="-30"/>
<feGaussianBlur stdDeviation="15"/>
<feComposite in2="hardAlpha" operator="arithmetic" k2="-1" k3="1"/>
<feColorMatrix type="matrix" values="0 0 0 0 0 0 0 0 0 0 0 0 0 0 0 0 0 0 0.15 0"/>
<feBlend mode="normal" in2="shape" result="effect1_innerShadow_64381_775"/>
</filter>
<linearGradient id="paint0_linear_64381_775" x1="250.87" y1="0.290039" x2="250.87" y2="347.579" gradientUnits="userSpaceOnUse">
<stop stop-color="#EEF1F8"/>
<stop offset="0.710263" stop-color="#B4B7C0"/>
<stop offset="1" stop-color="#C6C9D0"/>
</linearGradient>
<linearGradient id="paint1_linear_64381_775" x1="380.58" y1="20.5799" x2="424.928" y2="41.1596" gradientUnits="userSpaceOnUse">
<stop stop-color="#F4F4FC"/>
<stop offset="1" stop-color="#C5C8CD"/>
</linearGradient>
<linearGradient id="paint2_linear_64381_775" x1="120.001" y1="20.3407" x2="75.6136" y2="40.8871" gradientUnits="userSpaceOnUse">
<stop stop-color="#F4F4FC"/>
<stop offset="1" stop-color="#C5C8CD"/>
</linearGradient>
<linearGradient id="paint3_linear_64381_775" x1="160" y1="107.45" x2="0.00011843" y2="347.74" gradientUnits="userSpaceOnUse">
<stop stop-color="#F8F9FE"/>
<stop offset="1" stop-color="#BBBEC5"/>
</linearGradient>
<linearGradient id="paint4_linear_64381_775" x1="340" y1="107.348" x2="499.999" y2="347.638" gradientUnits="userSpaceOnUse">
<stop stop-color="#F8F9FE"/>
<stop offset="1" stop-color="#BBBEC5"/>
</linearGradient>
<linearGradient id="paint5_linear_64381_775" x1="250.87" y1="241.935" x2="250.87" y2="347.437" gradientUnits="userSpaceOnUse">
<stop stop-color="#ABAEB5"/>
<stop offset="0.5" stop-color="#C4C4C4" stop-opacity="0"/>
<stop offset="1" stop-color="#C4C4C4"/>
<stop offset="1" stop-color="#999CA5"/>
</linearGradient>
</defs>
</svg>
